Coordinates
version=1
nRows=8
nColumns=63
inDegrees=yes

Units are S.I. units (second, meters, Newtons, ...)
If the header above contains a line with 'inDegrees', this indicates whether rotational values are in degrees (yes) or radians (no).

endheader
time	pelvis_tilt	pelvis_list	pelvis_rotation	pelvis_tx	pelvis_ty	pelvis_tz	hip_flexion_r	hip_adduction_r	hip_rotation_r	knee_angle_r	knee_angle_r_beta	ankle_angle_r	subtalar_angle_r	mtp_angle_r	hip_flexion_l	hip_adduction_l	hip_rotation_l	knee_angle_l	knee_angle_l_beta	ankle_angle_l	subtalar_angle_l	mtp_angle_l	L5_S1_Flex_Ext	L5_S1_Lat_Bending	L5_S1_axial_rotation	L4_L5_Flex_Ext	L4_L5_Lat_Bending	L4_L5_axial_rotation	L3_L4_Flex_Ext	L3_L4_Lat_Bending	L3_L4_axial_rotation	L2_L3_Flex_Ext	L2_L3_Lat_Bending	L2_L3_axial_rotation	L1_L2_Flex_Ext	L1_L2_Lat_Bending	L1_L2_axial_rotation	L1_T12_Flex_Ext	L1_T12_Lat_Bending	L1_T12_axial_rotation	Abs_r3	Abs_r2	Abs_r1	Abs_t1	Abs_t2	neck_flexion	neck_bending	neck_rotation	arm_flex_r	arm_add_r	arm_rot_r	elbow_flex_r	pro_sup_r	wrist_flex_r	wrist_dev_r	arm_flex_l	arm_add_l	arm_rot_l	elbow_flex_l	pro_sup_l	wrist_flex_l	wrist_dev_l
2.192308	11.443042	-34.510514	133.887001	0.237230	0.274383	0.774055	46.749970	-12.742748	-19.048250	35.889959	0.626398	28.320212	-18.467580	0.000000	45.717908	10.071400	5.834513	25.114236	0.438326	23.443522	5.920610	0.000000	-0.361076	-0.227109	0.242422	-0.670553	-0.302055	0.257573	-0.593211	-0.552192	0.257573	-0.412673	-0.552192	0.212119	-0.335295	-0.463120	0.196968	-0.206319	-0.351792	0.181816	-2.579127	-2.569100	1.348278	0.000000	0.000000	7.002040	-1.387592	-18.271905	4.652164	-17.917657	10.456229	91.019142	87.684585	15.238149	11.961326	-7.968071	-22.858243	19.671099	111.431126	87.769536	16.819439	12.694905
2.211538	12.148817	-34.632553	134.496715	0.236562	0.273596	0.775389	47.040734	-12.592635	-19.124314	35.629318	0.621849	28.422775	-18.358991	0.000000	46.497116	9.981081	5.934076	25.558003	0.446071	23.221594	6.241948	0.000000	-0.341979	-0.144341	0.221884	-0.635089	-0.191973	0.235751	-0.561837	-0.350950	0.235751	-0.390848	-0.350950	0.194148	-0.317562	-0.294340	0.180280	-0.195407	-0.223584	0.166413	-2.442722	-1.632813	1.234050	0.000000	0.000000	6.986234	-2.262467	-18.238368	8.365273	-17.831802	8.683795	86.863886	87.775393	9.951914	9.940621	-7.201867	-22.039500	19.245994	110.122391	88.012097	15.659544	12.924459
2.230769	12.782540	-34.936235	134.956025	0.236134	0.272782	0.776810	47.510896	-12.476196	-18.999618	35.424174	0.618268	28.453910	-18.270741	0.000000	47.423379	9.923941	5.866516	26.026141	0.454242	22.914399	6.510521	0.000000	-0.319511	-0.079333	0.229198	-0.593364	-0.105513	0.243523	-0.524925	-0.192891	0.243523	-0.365169	-0.192891	0.200549	-0.296698	-0.161776	0.186224	-0.182569	-0.122887	0.171899	-2.282237	-0.897432	1.274733	0.000000	0.000000	6.939766	-2.951798	-18.155833	11.842788	-17.486847	6.875153	83.284291	87.906948	4.885772	7.957528	-6.342294	-21.208700	19.598293	108.553907	88.211298	13.983028	12.375133
2.250000	13.254977	-35.468574	135.213319	0.236039	0.271911	0.778175	48.172884	-12.455345	-18.628362	35.312912	0.616327	28.419333	-18.208359	0.000000	48.443643	9.934176	5.527233	26.445474	0.461561	22.541895	6.831431	0.000000	-0.294470	-0.045816	0.261391	-0.546860	-0.060936	0.277728	-0.483785	-0.111397	0.277728	-0.336550	-0.111397	0.228717	-0.273445	-0.093428	0.212380	-0.168260	-0.070969	0.196043	-2.103369	-0.518282	1.453777	0.000000	0.000000	6.860075	-3.352063	-18.051035	15.033735	-16.959484	5.153776	80.511494	88.077559	0.596116	6.266962	-5.495108	-20.532512	20.653752	106.770370	88.415999	11.951448	10.993577
2.269231	13.523871	-36.225143	135.287038	0.236274	0.270959	0.779431	48.995943	-12.577586	-18.032418	35.323728	0.616515	28.316323	-18.178929	0.000000	49.502254	10.051497	4.927440	26.778377	0.467371	22.123784	7.222441	0.000000	-0.268761	-0.049580	0.313852	-0.499116	-0.065941	0.333468	-0.441547	-0.120549	0.333468	-0.307167	-0.120549	0.274620	-0.249571	-0.101104	0.255005	-0.153570	-0.076799	0.235389	-1.919733	-0.560859	1.745550	0.000000	0.000000	6.765234	-3.493376	-18.073150	17.863511	-16.313127	3.539748	78.660004	88.269312	-2.404936	5.042738	-4.681942	-20.119911	22.312761	104.802103	88.468027	9.880720	8.949916
2.288462	13.610075	-37.155102	135.197453	0.236807	0.269932	0.780574	49.929852	-12.817928	-17.255396	35.450780	0.618733	28.124046	-18.184681	0.000000	50.560806	10.246773	4.083428	27.032285	0.471802	21.716519	7.698837	0.000000	-0.244102	-0.085576	0.383826	-0.453322	-0.113816	0.407815	-0.401035	-0.208068	0.407815	-0.278984	-0.208068	0.335847	-0.226673	-0.174506	0.311858	-0.139480	-0.132557	0.287869	-1.743595	-0.968048	2.134722	0.000000	0.000000	6.695256	-3.442974	-18.217715	20.284029	-15.609786	2.042322	77.681726	88.449649	-3.801730	4.375275	-3.896373	-19.904073	24.297385	102.670182	88.336252	8.518674	6.775536
2.307692	13.567449	-38.190581	135.012558	0.237523	0.268868	0.781638	50.922329	-13.153905	-16.349185	35.681531	0.622760	27.870266	-18.224099	0.000000	51.580535	10.509147	3.098230	27.205781	0.474830	21.340779	8.207025	0.000000	-0.221564	-0.144275	0.467485	-0.411467	-0.191886	0.496702	-0.364008	-0.350791	0.496702	-0.253226	-0.350791	0.409049	-0.205745	-0.294206	0.379831	-0.126602	-0.223482	0.350613	-1.582613	-1.632070	2.600009	0.000000	0.000000	6.643896	-3.355249	-18.563132	22.246304	-14.880376	0.662099	77.406309	88.559020	-3.508446	4.315859	-3.047126	-19.861505	26.645708	100.428478	88.095484	7.434053	4.707487
2.326923	13.488473	-39.227706	134.802135	0.238222	0.267837	0.782620	51.904859	-13.517748	-15.410016	35.968110	0.627762	27.592011	-18.286023	0.000000	52.530474	10.782515	2.062048	27.317255	0.476776	21.049100	8.744866	0.000000	-0.200385	-0.207873	0.560305	-0.372134	-0.276472	0.595324	-0.329212	-0.505423	0.595324	-0.229020	-0.505423	0.490267	-0.186077	-0.423895	0.455247	-0.114500	-0.321996	0.420228	-1.431327	-2.351505	3.116246	0.000000	0.000000	6.585272	-3.308853	-19.004156	23.711697	-14.169253	-0.554842	77.627251	88.610439	-1.666242	4.874287	-2.133572	-19.823088	29.051770	98.003177	87.906407	7.502912	2.977731
